<svg xmlns="http://www.w3.org/2000/svg" xmlns:xlink="http://www.w3.org/1999/xlink" width="127.851" height="133.58" viewBox="0 0 127.851 133.58"><defs><style>.a{fill:none;}.b{clip-path:url(#a);}.c{fill:red;}</style><clipPath id="a"><rect class="a" width="127.851" height="133.58"/></clipPath></defs><g class="b"><path class="c" d="M95.822,98.228c-.8-1.6-.456-2.515.95-3.62,9.5-7.582,30.092-24.309,31.079-25.186-2.318-1.257-4.331-2.439-6.421-3.505-1.178-.61-1.6-1.334-1.178-2.553s3.5-13.869,4.711-18.632c-1.026.191-10.448,2.21-14.362,3.163-1.71.419-2.66.114-3.344-1.562-1.292-3.2-2.85-6.287-4.407-9.716-7.1,6.668-13.526,13.641-20.631,19.966l-.8-.419,9.385-39.436c-4.711,1.867-9.119,3.544-13.45,5.372-1.444.61-2.052.229-2.622-.914C73.139,17.908,66.224,4.039,64.211,0L52.318,21.3a1.508,1.508,0,0,1-2.28.686c-1.748-.762-10.334-4.229-13.222-5.411,3.078,13.946,6.573,27.4,9.271,40.96l-.836.381L23.709,37.188l-3,7.278c-1.71,4.267-.95,3.772-5.7,3.048-3.989-.61-7.941-1.257-12.12-1.943.19.724,3.685,13.107,5.471,18.823.494,1.6.038,2.4-1.634,2.858S2.356,68.585,0,69.309C.494,69.8,20.4,86.8,30.092,94.99c2.926,2.515,2.964,2.515,1.254,5.83L26.976,108.9c1.824-.343,27.66-6.02,35.183-7.659l-.988,32.311q2.774.076,5.509,0l-1.026-32.463c6.421,1.334,32.029,6.592,34.461,7.049-1.52-3.544-2.812-6.744-4.331-9.869"/></g></svg>